:SAMPLES-PER-SECOND 30
:FULLY-SPECIFIED
:DEGREES
42
root  2.16095 40.951 -3.72795 178.12 -86.3846 -175.296
RightUpLeg  -1.11454 -7.20491 -4.47251
RightLeg  3.55859 -0.492591 3.31311
RightFoot  -3.9203 0.0429961 -1.07309
RightToes  -5.8209e-011 0 -3.6325e-017
Spine  -1.27141 -0.363243 3.67297
Spine1  6.11149 -0.69684 0.655755
HEad  1.09397 4.93207 -5.32556
LeftShoulder1  6.21437 -9.05559 -43.0044
LeftArm  -17.502 16.3202 -23.8341
LeftForeArm  21.7678 -15.7857 -3.13707
LeftHand  -0.244104 0.0205437 5.32207
RightShoulder  4.86966 7.71301 37.3948
RightArm  -14.4872 -13.1763 24.5307
RightForeArm  8.72048 12.0208 4.86347
RightHand  -0.298266 -1.25434 -8.25567
LeftUpLeg  0.635736 6.96106 7.15551
LeftLeg  0.772632 11.3972 -3.75881
LeftFoot  -2.70203 0.363223 -4.59229
LeftToes  1.76439e-010 -1.07097e-011 2.32476e-011
43
root  1.99491 40.9215 -3.99649 177.325 -86.0196 -174.5
RightUpLeg  -1.09586 -7.01001 -4.00273
RightLeg  4.06845 -0.399989 3.34374
RightFoot  -4.54945 0.053762 -1.42594
RightToes  -5.8209e-011 0 -3.6325e-017
Spine  -1.55193 -0.471119 3.88047
Spine1  6.70829 -0.888065 0.905183
HEad  0.616673 6.00165 -6.10059
LeftShoulder1  6.81789 -9.63569 -45.2106
LeftArm  -16.6807 16.5744 -26.5003
LeftForeArm  22.6584 -13.9577 -3.30094
LeftHand  -0.244104 0.0205437 5.32207
RightShoulder  5.38721 8.25784 39.687
RightArm  -14.0712 -14.3561 28.2162
RightForeArm  11.2693 11.6108 4.89423
RightHand  -0.182715 -2.10024 -6.07457
LeftUpLeg  0.96821 7.23245 7.71244
LeftLeg  0.913118 11.3925 -3.7047
LeftFoot  -3.06993 0.379553 -4.99681
LeftToes  1.76439e-010 -1.07097e-011 2.32476e-011
44
root  1.79947 40.8784 -4.28728 176.61 -85.517 -173.844
RightUpLeg  -1.04822 -6.7957 -3.488
RightLeg  4.74163 -0.205105 3.35496
RightFoot  -5.33164 0.0584572 -1.80154
RightToes  -5.8209e-011 0 -3.6325e-017
Spine  -1.7504 -0.548243 3.95734
Spine1  7.18882 -1.08438 1.34786
HEad  0.119722 7.1196 -6.65781
LeftShoulder1  7.02833 -9.75687 -46.2068
LeftArm  -16.9732 17.0866 -30.1364
LeftForeArm  22.7602 -12.6443 -3.36877
LeftHand  -0.244104 0.0205437 5.32207
RightShoulder  5.6949 8.50023 41.2299
RightArm  -13.4594 -15.3981 32.1028
RightForeArm  13.4654 11.1051 5.05771
RightHand  -0.0789536 -2.99703 -3.12904
LeftUpLeg  1.28267 7.54766 8.36238
LeftLeg  1.42471 11.3341 -3.57686
LeftFoot  -3.61682 0.430543 -6.05661
LeftToes  1.76439e-010 -1.07097e-011 2.32476e-011
45
root  1.58551 40.8166 -4.57304 175.327 -84.872 -172.731
RightUpLeg  -0.928388 -6.59732 -2.93061
RightLeg  5.57357 0.139662 3.37627
RightFoot  -6.22363 0.0569697 -2.21717
RightToes  -5.8209e-011 0 -3.6325e-017
Spine  -1.7877 -0.622617 4.40919
Spine1  7.56543 -1.22869 1.59608
HEad  -0.296034 8.27561 -7.29886
LeftShoulder1  7.04141 -9.67394 -46.5909
LeftArm  -17.4451 17.8509 -33.7057
LeftForeArm  22.1364 -12.0948 -3.4161
LeftHand  -0.244104 0.0205437 5.32207
RightShoulder  5.84198 8.58159 42.0681
RightArm  -14.7005 -16.6239 35.5114
RightForeArm  8.34367 10.3903 5.39398
RightHand  -0.0447949 -3.91382 -2.13043
LeftUpLeg  1.42849 7.87051 9.04035
LeftLeg  2.67683 11.5189 -3.20283
LeftFoot  -4.43596 0.446305 -6.94171
LeftToes  1.76439e-010 -1.07097e-011 2.32476e-011
46
root  1.36416 40.7098 -4.82862 172.249 -84.1925 -169.953
RightUpLeg  -0.881521 -6.52032 -2.2708
RightLeg  6.93521 0.633817 3.46424
RightFoot  -7.34509 0.0434169 -2.67131
RightToes  -5.8209e-011 0 -3.6325e-017
Spine  -1.65228 -0.694952 5.66205
Spine1  7.91338 -1.25697 1.44688
HEad  -0.601647 9.51231 -8.17848
LeftShoulder1  7.07635 -9.66073 -46.875
LeftArm  -17.3896 18.7037 -36.1573
LeftForeArm  21.8562 -12.3419 -3.54598
LeftHand  -0.244104 0.0205437 5.32207
RightShoulder  5.80535 8.49935 42.0896
RightArm  -17.5759 -18.0127 37.4004
RightForeArm  -1.56745 10.334 5.57624
RightHand  -0.0752348 -3.97157 -4.36059
LeftUpLeg  1.03288 8.92779 9.78144
LeftLeg  5.38608 11.0956 -2.26365
LeftFoot  -5.93947 0.376074 -7.2136
LeftToes  1.76439e-010 -1.07097e-011 2.32476e-011
47
root  1.15044 40.5422 -5.06549 167.485 -83.7342 -165.615
RightUpLeg  -0.958995 -6.70901 -1.53289
RightLeg  8.98414 1.1342 3.67559
RightFoot  -8.82304 0.00976362 -3.16608
RightToes  -5.8209e-011 0 -3.6325e-017
Spine  -1.26971 -0.809355 7.29002
Spine1  8.19578 -1.26494 1.2939
HEad  -0.893704 10.8404 -8.97679
LeftShoulder1  7.16332 -9.76429 -47.0866
LeftArm  -16.9185 19.4302 -37.1696
LeftForeArm  22.2723 -13.2853 -3.66114
LeftHand  -0.244104 0.0205437 5.32207
RightShoulder  5.60632 8.26487 41.4093
RightArm  -18.8347 -18.788 37.1739
RightForeArm  -3.64385 11.0817 5.39735
RightHand  -0.118368 -3.35778 -6.00453
LeftUpLeg  -0.263554 12.3339 10.4965
LeftLeg  9.92352 7.95215 -0.39146
LeftFoot  -7.80438 0.298011 -8.21137
LeftToes  1.76439e-010 -1.07097e-011 2.32476e-011
48
root  0.959109 40.3386 -5.3136 161.856 -83.6886 -160.537
RightUpLeg  -0.945517 -7.16191 -0.828403
RightLeg  11.2374 1.38462 3.95803
RightFoot  -10.5258 -0.045264 -3.6264
RightToes  -5.8209e-011 0 -3.6325e-017
Spine  -0.522861 -1.00686 8.6437
Spine1  8.31202 -1.34902 1.42747
HEad  -1.28104 12.0364 -9.27327
LeftShoulder1  7.21818 -9.87938 -47.0397
LeftArm  -16.3963 19.7748 -36.932
LeftForeArm  22.8628 -14.6487 -3.66108
LeftHand  -0.244104 0.0205437 5.32207
RightShoulder  5.45813 8.14622 40.6725
RightArm  -16.5112 -18.2876 35.1745
RightForeArm  5.16096 11.3457 5.15215
RightHand  -0.0790119 -3.70092 -4.14772
LeftUpLeg  -2.72158 14.8714 10.9494
LeftLeg  16.2507 5.55396 2.10834
LeftFoot  -8.61715 0.30114 -10.2832
LeftToes  1.76439e-010 -1.07097e-011 2.32476e-011
49
root  0.78173 40.1558 -5.57885 156.353 -84.0187 -155.706
RightUpLeg  -0.564622 -7.6547 -0.295659
RightLeg  12.9997 1.22579 4.15901
RightFoot  -12.0956 -0.107141 -3.90069
RightToes  -5.8209e-011 0 -3.6325e-017
Spine  0.480591 -1.20743 9.65918
Spine1  8.33643 -1.38746 1.46528
HEad  -1.67014 12.7572 -9.09008
LeftShoulder1  7.21849 -9.98229 -46.6763
LeftArm  -15.7062 19.456 -35.7943
LeftForeArm  23.3165 -15.7813 -3.64595
LeftHand  -0.244104 0.0205437 5.32207
RightShoulder  5.52258 8.37349 40.3378
RightArm  -12.7034 -17.0005 32.6006
RightForeArm  13.8064 10.6618 5.25336
RightHand  -0.0452292 -3.9681 -2.12612
LeftUpLeg  -6.20544 11.8348 11.2109
LeftLeg  24.296 9.44936 5.02926
LeftFoot  -7.13363 0.428994 -10.6524
LeftToes  1.76439e-010 -1.07097e-011 2.32476e-011
50
root  0.577065 40.0325 -5.83715 151.617 -84.5474 -151.67
RightUpLeg  0.244405 -8.00113 0.0121365
RightLeg  13.961 0.792528 4.20435
RightFoot  -13.2663 -0.156054 -3.95855
RightToes  -5.8209e-011 0 -3.6325e-017
Spine  1.36589 -1.27905 10.6863
Spine1  8.48039 -1.19634 0.994259
HEad  -1.77124 12.9344 -8.77961
LeftShoulder1  7.20315 -10.1282 -46.0647
LeftArm  -14.6043 18.4621 -34.2773
LeftForeArm  23.8103 -16.0955 -3.73198
LeftHand  -0.244104 0.0205437 5.32207
RightShoulder  5.65649 8.7497 40.023
RightArm  -10.7283 -15.8735 30.8369
RightForeArm  13.5539 9.49634 5.69785
RightHand  -0.0450148 -4.36293 -2.75123
LeftUpLeg  -10.2605 9.10393 10.8351
LeftLeg  32.8188 12.9829 9.19344
LeftFoot  -3.98962 0.495816 -7.45977
LeftToes  1.76439e-010 -1.07097e-011 2.32476e-011
51
root  0.302673 39.9518 -6.07248 149.355 -85.1456 -149.951
RightUpLeg  1.16361 -8.2395 0.0173841
RightLeg  14.5049 0.406001 4.16472
RightFoot  -14.2206 -0.19529 -3.94509
RightToes  -5.8209e-011 0 -3.6325e-017
Spine  1.81451 -1.172 11.6275
Spine1  8.73656 -0.780146 0.165582
HEad  -1.39741 12.8513 -8.50727
LeftShoulder1  7.17363 -10.2854 -45.3304
LeftArm  -13.4517 17.2761 -32.8488
LeftForeArm  24.401 -15.8573 -3.8729
LeftHand  -0.244104 0.0205437 5.32207
RightShoulder  5.63706 8.9327 39.2271
RightArm  -11.1857 -15.0468 30.4978
RightForeArm  9.12733 8.69256 5.8852
RightHand  -0.0442364 -4.94024 -5.37213
LeftUpLeg  -14.191 7.4887 9.73898
LeftLeg  39.7048 13.4048 11.96
LeftFoot  -1.70519 0.312174 -3.49763
LeftToes  1.76439e-010 -1.07097e-011 2.32476e-011
